# Blender v2.83.1 OBJ File: 'block.blend'
# www.blender.org
mtllib block.mtl
o Cube
v 1.000000 1.000000 -1.000000
v 1.000000 -1.000000 -1.000000
v 1.000000 1.000000 1.000000
v 1.000000 -1.000000 1.000000
v -1.000000 1.000000 -1.000000
v -1.000000 -1.000000 -1.000000
v -1.000000 1.000000 1.000000
v -1.000000 -1.000000 1.000000
vt 0.500555 0.666601
vt 0.500853 0.999934
vt 0.251424 1.000232
vt 0.251125 0.666899
vt 0.250827 0.333566
vt 0.000465 0.667198
vt 0.000167 0.333865
vt 0.999936 0.332671
vt 1.000234 0.666004
vt 0.765448 0.666302
vt 0.765149 0.332969
vt 0.499958 -0.000065
vt 0.500256 0.333268
vt 0.250528 0.000233
vn 0.0000 1.0000 0.0000
vn 0.0000 0.0000 1.0000
vn -1.0000 0.0000 0.0000
vn 0.0000 -1.0000 0.0000
vn 1.0000 0.0000 0.0000
vn 0.0000 0.0000 -1.0000
usemtl Material
s off
f 1/1/1 5/2/1 7/3/1 3/4/1
f 4/5/2 3/4/2 7/6/2 8/7/2
f 8/8/3 7/9/3 5/10/3 6/11/3
f 6/12/4 2/13/4 4/5/4 8/14/4
f 2/13/5 1/1/5 3/4/5 4/5/5
f 6/11/6 5/10/6 1/1/6 2/13/6
